<svg xmlns="http://www.w3.org/2000/svg" version="1.0" preserveAspectRatio="xMidYMid meet" viewBox="108 108 808 808">
   <circle cx="512" cy="512" r="384" stroke="#000000" stroke-width="20" fill="#ffffff" />
   <g transform="translate(0.000000,1024.000000) scale(0.100000,-0.100000)" fill="#000000" stroke="none">
      <path d="M5235 7984 c-366 -54 -677 -275 -824 -585 -64 -134 -83 -219 -88 -404 -3 -88 -10 -169 -16 -180 -5 -11 -71 -96 -146 -189 -75 -92 -174 -217 -221 -276 -47 -59 -155 -195 -241 -301 -85 -107 -245 -306 -355 -444 -110 -137 -276 -344 -369 -460 -384 -478 -442 -551 -449 -569 -3 -10 -1 -25 5 -32 24 -29 64 -15 164 59 339 250 1458 1013 2082 1420 l162 105 14 -31 c28 -60 40 -122 40 -207 0 -154 -20 -206 -308 -835 -249 -543 -345 -880 -361 -1273 -14 -330 72 -715 231 -1029 94 -185 180 -306 318 -449 119 -123 159 -149 219 -141 45 6 63 19 84 59 23 44 8 74 -85 173 -212 225 -345 452 -439 746 -54 168 -82 339 -89 530 -14 391 82 733 397 1419 288 624 332 793 274 1048 -8 35 -14 67 -14 72 0 4 33 16 73 25 215 52 364 137 470 267 60 75 87 147 61 169 -10 8 -24 2 -60 -25 -92 -71 -168 -97 -464 -160 -164 -34 -228 -61 -364 -151 -28 -19 -28 -18 9 30 73 96 84 152 23 121 -15 -8 -209 -153 -432 -323 -476 -361 -637 -479 -727 -533 -72 -43 -166 -83 -182 -77 -9 3 191 185 388 353 133 115 690 568 768 626 43 31 103 72 133 90 30 18 54 38 54 44 0 7 -29 13 -77 16 -159 9 -273 93 -314 230 -55 179 12 411 164 574 114 122 253 208 402 248 85 23 264 31 365 17 376 -55 669 -361 735 -766 25 -154 16 -287 -31 -464 -32 -117 -217 -611 -417 -1111 -198 -496 -208 -524 -251 -670 -60 -208 -79 -354 -73 -565 5 -195 20 -300 68 -463 55 -189 140 -360 262 -526 70 -95 92 -115 130 -116 27 0 67 30 67 52 0 6 -25 55 -55 108 -97 171 -173 369 -209 551 -20 96 -31 307 -21 384 l7 60 28 -80 c144 -421 478 -775 955 -1013 267 -134 559 -209 856 -219 l156 -6 37 34 c50 47 56 87 19 129 -28 31 -32 32 -158 46 -409 42 -804 190 -1105 413 -102 76 -274 248 -350 351 -76 104 -141 230 -185 364 -55 165 -69 252 -69 421 1 267 34 393 282 1075 296 814 297 817 297 1075 0 191 -21 314 -77 454 -69 176 -142 285 -282 419 -204 195 -433 290 -721 297 -77 2 -153 1 -170 -1z" />
      <path d="M5313 7405 c-137 -30 -250 -121 -315 -253 -31 -62 -33 -74 -37 -189 -4 -141 2 -158 49 -141 43 15 104 87 149 177 95 187 179 231 449 231 194 0 226 14 165 72 -65 60 -235 119 -342 117 -31 0 -84 -7 -118 -14z" />
      <path d="M5325 7146 c-50 -22 -85 -71 -85 -119 0 -80 62 -137 147 -137 153 0 181 219 34 260 -46 13 -59 12 -96 -4z" />
      <path d="M4995 4246 c-48 -73 -78 -397 -56 -596 49 -427 287 -885 640 -1229 140 -136 319 -267 449 -329 93 -44 150 -42 194 7 58 65 34 112 -96 198 -270 176 -523 433 -697 708 -212 337 -330 698 -362 1110 -11 142 -13 150 -34 153 -14 2 -27 -5 -38 -22z" />
      <path d="M6472 2968 c-53 -53 100 -229 273 -313 164 -81 380 -126 455 -95 40 17 70 56 70 92 0 64 -23 79 -165 102 -172 29 -376 99 -532 182 -46 24 -84 44 -86 44 -2 0 -8 -5 -15 -12z" />
   </g>

</svg>
